<svg xmlns="http://www.w3.org/2000/svg" viewBox="0 0 1600 900" fill="none">
  <g stroke="#d7d7d7" stroke-width="1.4" opacity=".28" stroke-linejoin="round">
    <path d="M116 225 170 177 245 164 292 190 352 184 401 219 380 264 324 275 302 320 252 303 217 334 168 314 184 270 126 265Z"/>
    <path d="m390 342 48-31 50 25 29 59-14 73-35 54-22 91-38 74-32-42 15-75-31-67 28-60-23-55Z"/>
    <path d="m514 168 55-39 86 12 50 34-10 45-60 14-39 38-62-25-37-39Z"/>
    <path d="m674 247 74-21 75 25 41 54-23 34-63-3-32 32-60-30-36-47Z"/>
    <path d="m814 322 55-14 42 31 64-6 69 39 20 52-47 35-61-12-50 31-73-22-37-54Z"/>
    <path d="m969 172 54-27 84 11 42 39-22 37-60 14-49-22-65 5-18-27Z"/>
    <path d="m1112 238 77-23 72 29 32 50-42 35-61-12-42 31-59-27-25-42Z"/>
    <path d="m1256 340 72-19 62 34 24 56-42 41-62-19-51 27-43-45Z"/>
    <path d="m1112 433 54-20 55 31 9 57-42 34-62-14-35-39Z"/>
    <path d="m1223 534 55-19 58 32 14 61-47 39-60-21-31-47Z"/>
    <path d="m710 515 58-18 49 29-4 58-41 23-53-27-29-37Z"/>
    <path d="m836 604 61-22 55 33 13 56-42 44-65-22-29-47Z"/>
  </g>
  <g stroke="#d7d7d7" stroke-width=".7" opacity=".12">
    <path d="M40 150h1520M40 300h1520M40 450h1520M40 600h1520M40 750h1520"/>
    <path d="M200 40v820M400 40v820M600 40v820M800 40v820M1000 40v820M1200 40v820M1400 40v820"/>
  </g>
</svg>
